<?xml version="1.0" encoding="utf-8"?>
<!-- Generator: Adobe Illustrator 18.1.0, SVG Export Plug-In . SVG Version: 6.00 Build 0)  -->
<!DOCTYPE svg PUBLIC "-//W3C//DTD SVG 1.1//EN" "http://www.w3.org/Graphics/SVG/1.1/DTD/svg11.dtd">
<svg version="1.1" id="Layer_1" xmlns="http://www.w3.org/2000/svg" xmlns:xlink="http://www.w3.org/1999/xlink" x="0px" y="0px"
	 viewBox="0 0 89.1565933 89.156601" style="enable-background:new 0 0 89.1565933 89.156601;" xml:space="preserve">
<style type="text/css">
	.st0{fill:#D1D2D1;}
	.st1{fill:#FFFFFF;}
	.st2{fill:#EE753E;}
	.st3{fill:#9ACD6B;}
	.st4{fill:#38C3F2;}
	.st5{fill:#FBC95D;}
	.st6{fill-rule:evenodd;clip-rule:evenodd;fill:#FFFFFF;}
	.st7{fill:#91C9DB;}
	.st8{fill:#4EA1D9;}
	.st9{fill:#8AC979;}
	.st10{fill:#DC97BE;}
	.st11{fill:#4E7DA2;}
	.st12{fill:#4E4E54;}
	.st13{fill:#F16361;}
	.st14{fill:#95A595;}
	.st15{fill:#DDDCDC;}
	.st16{fill:#475CAA;}
	.st17{fill:#87D3E0;}
	.st18{fill:#18ACE3;}
	.st19{fill:#3497D4;}
	.st20{fill:#C5DF9C;}
	.st21{fill:#CCCCCC;}
	.st22{fill:#D97AA5;}
	.st23{fill:#E11F26;}
	.st24{fill:#517CBE;}
	.st25{fill:#65CCEF;}
</style>
<g id="twitter_1_">
	<g>
		<g>
			<path class="st1" d="M59.8170967,33.6934013c-1.1794014,0.5700989-2.4336967,0.938797-3.7629013,1.1091995
				c1.3544998-0.8719025,2.3938026-2.2448997,2.8862038-3.8903999c-1.2669983,0.8028984-2.6692047,1.3769989-4.1628036,1.7126007
				c-1.1890984-1.3748016-2.8956985-2.2321014-4.771698-2.2321014c-3.6130028,0-6.5410995,3.1497993-6.5410995,7.0439987
				c0,0.5468025,0.0566025,1.0878029,0.1646996,1.5965996c-5.4258995-0.2801971-10.2532997-3.0951996-13.4817982-7.3474979
				c-0.5604,1.0372982-0.8815994,2.2448978-0.8815994,3.539999c0,2.4374008,1.1529999,4.6063995,2.9115009,5.8508987
				c-1.0744019-0.0435982-2.0833015-0.3432999-2.9639015-0.8755989c0,0.0291023,0,0.0652008,0,0.096199
				c0,3.4057999,2.2544003,6.2481003,5.2465973,6.9057007c-0.5477982,0.1595993-1.127697,0.2326012-1.728096,0.2326012
				c-0.4202995,0-0.8193016-0.0290985-1.2232018-0.1254005c0.8290024,2.8081017,3.247097,4.847702,6.1088982,4.8895988
				c-2.2391014,1.8983002-5.0588989,3.0135002-8.1239967,3.0135002c-0.5293007,0-1.0519009-0.0310974-1.5618-0.0981979
				c2.8936996,2.0072975,6.3257999,3.176899,10.0281963,3.176899c12.0307999,0,18.6137009-10.7346992,18.6137009-20.0401001
				c0-0.297699-0.007-0.5992012-0.0215988-0.900898C57.8289948,36.344799,58.9403992,35.1022987,59.8170967,33.6934013z"/>
		</g>
	</g>
</g>
</svg>
